<svg width="95" height="39" viewBox="0 0 95 39" fill="none" xmlns="http://www.w3.org/2000/svg">
<g filter="url(#filter0_i_21_110)">
<path d="M0.757812 38V1.37891H9.30273V5.62695C9.69336 4.12956 10.3607 2.9821 11.3047 2.18457C12.2487 1.38704 13.6322 0.988281 15.4551 0.988281C16.9199 0.988281 18.165 1.33008 19.1904 2.01367C20.2321 2.68099 20.9645 3.56803 21.3877 4.6748C22.055 3.47038 22.8363 2.55892 23.7314 1.94043C24.6429 1.30566 25.9368 0.988281 27.6133 0.988281C29.6478 0.988281 31.2103 1.42773 32.3008 2.30664C33.4076 3.16927 34.1725 4.3737 34.5957 5.91992C35.0352 7.44987 35.2549 9.22396 35.2549 11.2422V38H26.5391V11.0957C26.5391 8.73568 25.9368 7.55566 24.7324 7.55566C24.0977 7.55566 23.6094 7.77539 23.2676 8.21484C22.9258 8.63802 22.6898 9.16699 22.5596 9.80176C22.4294 10.4365 22.3643 11.0713 22.3643 11.7061V38H13.6484V11.0957C13.6484 10.3307 13.5508 9.56576 13.3555 8.80078C13.1764 8.03581 12.7044 7.65332 11.9395 7.65332C11.2884 7.65332 10.7839 7.88932 10.4258 8.36133C10.0677 8.83333 9.82357 9.41927 9.69336 10.1191C9.56315 10.8027 9.49805 11.4782 9.49805 12.1455V38H0.757812ZM45.3623 38.3906C43.3278 38.3906 41.7734 37.9186 40.6992 36.9746C39.6413 36.0306 38.917 34.7367 38.5264 33.0928C38.1357 31.4489 37.9404 29.5853 37.9404 27.502C37.9404 25.2721 38.1602 23.4492 38.5996 22.0332C39.0391 20.6009 39.7878 19.429 40.8457 18.5176C41.9199 17.6061 43.3929 16.833 45.2646 16.1982L50.6846 14.3428V10.583C50.6846 8.61361 50.0417 7.62891 48.7559 7.62891C47.584 7.62891 46.998 8.42643 46.998 10.0215V12.2188H38.502C38.4857 12.0885 38.4775 11.9258 38.4775 11.7305C38.4775 11.5189 38.4775 11.2829 38.4775 11.0225C38.4775 7.37663 39.332 4.79688 41.041 3.2832C42.7663 1.75326 45.4925 0.988281 49.2197 0.988281C51.1729 0.988281 52.9225 1.33822 54.4688 2.03809C56.015 2.72168 57.2357 3.73893 58.1309 5.08984C59.0423 6.44076 59.498 8.10905 59.498 10.0947V38H50.8066V33.6543C50.3835 35.1842 49.6836 36.3561 48.707 37.1699C47.7305 37.9837 46.6156 38.3906 45.3623 38.3906ZM48.8047 31.6035C49.5208 31.6035 50.0091 31.3024 50.2695 30.7002C50.5299 30.098 50.6602 29.4469 50.6602 28.7471V18.542C49.4557 19.0303 48.5199 19.6488 47.8525 20.3975C47.1852 21.1299 46.8516 22.2122 46.8516 23.6445V28.3564C46.8516 30.5212 47.5026 31.6035 48.8047 31.6035ZM61.3047 38L68.0186 18.3223L61.915 1.35449H70.8262L73.9756 10.2412L77.0762 1.35449H83.5703L77.2715 19.4697L83.8633 38H75.0986L71.3877 27.6973L67.9209 38H61.3047ZM91.3336 38.6C90.4169 38.6 89.6253 38.275 88.9586 37.625C88.3086 36.9583 87.9836 36.1667 87.9836 35.25C87.9836 34.3 88.3086 33.5 88.9586 32.85C89.6253 32.1833 90.4169 31.85 91.3336 31.85C92.2836 31.85 93.0836 32.1833 93.7336 32.85C94.3836 33.5 94.7086 34.3 94.7086 35.25C94.7086 36.1667 94.3836 36.9583 93.7336 37.625C93.0836 38.275 92.2836 38.6 91.3336 38.6Z" fill="#262523"/>
</g>
<path d="M0.757812 38H-0.242188V39H0.757812V38ZM0.757812 1.37891V0.378906H-0.242188V1.37891H0.757812ZM9.30273 1.37891H10.3027V0.378906H9.30273V1.37891ZM9.30273 5.62695H8.30273L10.2704 5.87938L9.30273 5.62695ZM11.3047 2.18457L11.95 2.94846L11.3047 2.18457ZM19.1904 2.01367L18.6357 2.84572L18.6433 2.85078L18.651 2.8557L19.1904 2.01367ZM21.3877 4.6748L20.4536 5.03194L21.221 7.03898L22.2624 5.15944L21.3877 4.6748ZM23.7314 1.94043L24.2999 2.76317L24.3029 2.76104L23.7314 1.94043ZM32.3008 2.30664L31.6733 3.08524L31.6796 3.09035L31.686 3.09537L32.3008 2.30664ZM34.5957 5.91992L33.6311 6.18392L33.6346 6.19599L34.5957 5.91992ZM35.2549 38V39H36.2549V38H35.2549ZM26.5391 38H25.5391V39H26.5391V38ZM23.2676 8.21484L24.0455 8.84318L24.0513 8.83604L24.0569 8.82878L23.2676 8.21484ZM22.3643 38V39H23.3643V38H22.3643ZM13.6484 38H12.6484V39H13.6484V38ZM13.3555 8.80078L12.3818 9.02867L12.3841 9.03844L12.3866 9.04816L13.3555 8.80078ZM9.69336 10.1191L10.6757 10.3063L10.6765 10.302L9.69336 10.1191ZM9.49805 38V39H10.498V38H9.49805ZM1.75781 38V1.37891H-0.242188V38H1.75781ZM0.757812 2.37891H9.30273V0.378906H0.757812V2.37891ZM8.30273 1.37891V5.62695H10.3027V1.37891H8.30273ZM10.2704 5.87938C10.6221 4.53091 11.1994 3.58258 11.95 2.94846L10.6593 1.42068C9.52191 2.38161 8.76459 3.72821 8.33512 5.37453L10.2704 5.87938ZM11.95 2.94846C12.6449 2.36143 13.7594 1.98828 15.4551 1.98828V-0.0117188C13.5049 -0.0117188 11.8525 0.412656 10.6593 1.42068L11.95 2.94846ZM15.4551 1.98828C16.7604 1.98828 17.8035 2.29093 18.6357 2.84572L19.7451 1.18162C18.5265 0.369225 17.0794 -0.0117188 15.4551 -0.0117188V1.98828ZM18.651 2.8557C19.5212 3.41314 20.1103 4.13402 20.4536 5.03194L22.3217 4.31767C21.8187 3.00205 20.943 1.94883 19.7299 1.17164L18.651 2.8557ZM22.2624 5.15944C22.8743 4.05501 23.5606 3.27394 24.2999 2.76316L23.163 1.1177C22.1119 1.84389 21.2357 2.88575 20.513 4.19017L22.2624 5.15944ZM24.3029 2.76104C24.9812 2.28869 26.0433 1.98828 27.6133 1.98828V-0.0117188C25.8304 -0.0117188 24.3046 0.322637 23.16 1.11982L24.3029 2.76104ZM27.6133 1.98828C29.5198 1.98828 30.8255 2.40194 31.6733 3.08524L32.9283 1.52804C31.5951 0.453531 29.7758 -0.0117188 27.6133 -0.0117188V1.98828ZM31.686 3.09537C32.599 3.80695 33.2565 4.81482 33.6312 6.1839L35.5602 5.65595C35.0886 3.93258 34.2161 2.53159 32.9155 1.51791L31.686 3.09537ZM33.6346 6.19599C34.0424 7.61594 34.2549 9.29364 34.2549 11.2422H36.2549C36.2549 9.15428 36.0279 7.2838 35.5568 5.64385L33.6346 6.19599ZM34.2549 11.2422V38H36.2549V11.2422H34.2549ZM35.2549 37H26.5391V39H35.2549V37ZM27.5391 38V11.0957H25.5391V38H27.5391ZM27.5391 11.0957C27.5391 9.86304 27.3872 8.78764 26.9781 7.9861C26.7662 7.5709 26.4714 7.20205 26.0697 6.93968C25.6627 6.67387 25.2044 6.55566 24.7324 6.55566V8.55566C24.8627 8.55566 24.9313 8.58496 24.976 8.61415C25.0259 8.64678 25.1075 8.72044 25.1967 8.89524C25.3898 9.27372 25.5391 9.96834 25.5391 11.0957H27.5391ZM24.7324 6.55566C23.8381 6.55566 23.0377 6.88158 22.4782 7.6009L24.0569 8.82878C24.1811 8.6692 24.3572 8.55566 24.7324 8.55566V6.55566ZM22.4896 7.58651C22.0299 8.15565 21.7362 8.83928 21.58 9.60081L23.5392 10.0027C23.6434 9.4947 23.8216 9.12039 24.0455 8.84318L22.4896 7.58651ZM21.58 9.60081C21.4365 10.3003 21.3643 11.0024 21.3643 11.7061H23.3643C23.3643 11.1402 23.4222 10.5727 23.5392 10.0027L21.58 9.60081ZM21.3643 11.7061V38H23.3643V11.7061H21.3643ZM22.3643 37H13.6484V39H22.3643V37ZM14.6484 38V11.0957H12.6484V38H14.6484ZM14.6484 11.0957C14.6484 10.2446 14.5397 9.39661 14.3244 8.5534L12.3866 9.04816C12.5619 9.7349 12.6484 10.4168 12.6484 11.0957H14.6484ZM14.3292 8.5729C14.204 8.03814 13.9501 7.53058 13.4968 7.16325C13.0406 6.7936 12.4904 6.65332 11.9395 6.65332V8.65332C12.1535 8.65332 12.2218 8.70429 12.2376 8.71712C12.2563 8.73228 12.3279 8.79845 12.3818 9.02867L14.3292 8.5729ZM11.9395 6.65332C11.0112 6.65332 10.1968 7.00863 9.62909 7.75694L11.2225 8.96571C11.3709 8.77002 11.5656 8.65332 11.9395 8.65332V6.65332ZM9.62909 7.75694C9.15977 8.37559 8.86324 9.11381 8.71023 9.93623L10.6765 10.302C10.7839 9.72473 10.9756 9.29108 11.2225 8.96571L9.62909 7.75694ZM8.71102 9.93203C8.56957 10.6747 8.49805 11.4128 8.49805 12.1455H10.498C10.498 11.5436 10.5567 10.9308 10.6757 10.3063L8.71102 9.93203ZM8.49805 12.1455V38H10.498V12.1455H8.49805ZM9.49805 37H0.757812V39H9.49805V37ZM40.6992 36.9746L40.0334 37.7208L40.0391 37.7258L40.6992 36.9746ZM38.5996 22.0332L39.5547 22.3296L39.5556 22.3265L38.5996 22.0332ZM40.8457 18.5176L40.1987 17.755L40.193 17.76L40.8457 18.5176ZM45.2646 16.1982L45.5858 17.1453L45.5885 17.1443L45.2646 16.1982ZM50.6846 14.3428L51.0085 15.2889L51.6846 15.0574V14.3428H50.6846ZM46.998 12.2188V13.2188H47.998V12.2188H46.998ZM38.502 12.2188L37.5097 12.3428L37.6192 13.2188H38.502V12.2188ZM41.041 3.2832L41.7041 4.03179L41.7045 4.03139L41.041 3.2832ZM54.4688 2.03809L54.0564 2.94914L54.0644 2.95269L54.4688 2.03809ZM58.1309 5.08984L57.2972 5.64224L57.3019 5.64915L58.1309 5.08984ZM59.498 38V39H60.498V38H59.498ZM50.8066 38H49.8066V39H50.8066V38ZM50.8066 33.6543H51.8066L49.8428 33.3877L50.8066 33.6543ZM50.6602 18.542H51.6602V17.0575L50.2845 17.6153L50.6602 18.542ZM47.8525 20.3975L48.5918 21.071L48.5991 21.0628L47.8525 20.3975ZM45.3623 37.3906C43.4691 37.3906 42.1869 36.9507 41.3593 36.2234L40.0391 37.7258C41.3599 38.8865 43.1865 39.3906 45.3623 39.3906V37.3906ZM41.365 36.2285C40.4871 35.4451 39.8519 34.3454 39.4993 32.8616L37.5535 33.324C37.9821 35.1279 38.7955 36.6161 40.0334 37.7208L41.365 36.2285ZM39.4993 32.8616C39.1302 31.3086 38.9404 29.5247 38.9404 27.502H36.9404C36.9404 29.6459 37.1412 31.5892 37.5535 33.324L39.4993 32.8616ZM38.9404 27.502C38.9404 25.3274 39.156 23.6143 39.5547 22.3296L37.6445 21.7368C37.1643 23.2841 36.9404 25.2169 36.9404 27.502H38.9404ZM39.5556 22.3265C39.944 21.0608 40.5938 20.0545 41.4984 19.2752L40.193 17.76C38.9817 18.8035 38.1342 20.141 37.6436 21.7399L39.5556 22.3265ZM41.4927 19.2801C42.4406 18.4758 43.7888 17.7547 45.5858 17.1453L44.9435 15.2512C42.997 15.9113 41.3993 16.7364 40.1987 17.7551L41.4927 19.2801ZM45.5885 17.1443L51.0085 15.2889L50.3607 13.3967L44.9408 15.2521L45.5885 17.1443ZM51.6846 14.3428V10.583H49.6846V14.3428H51.6846ZM51.6846 10.583C51.6846 9.52138 51.5171 8.55187 51.0397 7.82074C50.5141 7.01561 49.6991 6.62891 48.7559 6.62891V8.62891C49.0984 8.62891 49.2478 8.73455 49.3651 8.91412C49.5306 9.1677 49.6846 9.67524 49.6846 10.583H51.6846ZM48.7559 6.62891C47.9181 6.62891 47.1491 6.93057 46.6316 7.63497C46.1564 8.28185 45.998 9.13097 45.998 10.0215H47.998C47.998 9.31695 48.1327 8.96978 48.2434 8.81913C48.3118 8.72601 48.4217 8.62891 48.7559 8.62891V6.62891ZM45.998 10.0215V12.2188H47.998V10.0215H45.998ZM46.998 11.2188H38.502V13.2188H46.998V11.2188ZM39.4942 12.0947C39.4849 12.0203 39.4775 11.9022 39.4775 11.7305H37.4775C37.4775 11.9493 37.4864 12.1568 37.5097 12.3428L39.4942 12.0947ZM39.4775 11.7305C39.4775 11.7301 39.4775 11.7296 39.4775 11.7292C39.4775 11.7288 39.4775 11.7284 39.4775 11.728C39.4775 11.7276 39.4775 11.7272 39.4775 11.7267C39.4775 11.7263 39.4775 11.7259 39.4775 11.7255C39.4775 11.7251 39.4775 11.7247 39.4775 11.7243C39.4775 11.7238 39.4775 11.7234 39.4775 11.723C39.4775 11.7226 39.4775 11.7222 39.4775 11.7218C39.4775 11.7214 39.4775 11.7209 39.4775 11.7205C39.4775 11.7201 39.4775 11.7197 39.4775 11.7193C39.4775 11.7189 39.4775 11.7185 39.4775 11.718C39.4775 11.7176 39.4775 11.7172 39.4775 11.7168C39.4775 11.7164 39.4775 11.716 39.4775 11.7156C39.4775 11.7151 39.4775 11.7147 39.4775 11.7143C39.4775 11.7139 39.4775 11.7135 39.4775 11.7131C39.4775 11.7126 39.4775 11.7122 39.4775 11.7118C39.4775 11.7114 39.4775 11.711 39.4775 11.7106C39.4775 11.7101 39.4775 11.7097 39.4775 11.7093C39.4775 11.7089 39.4775 11.7085 39.4775 11.7081C39.4775 11.7076 39.4775 11.7072 39.4775 11.7068C39.4775 11.7064 39.4775 11.706 39.4775 11.7056C39.4775 11.7051 39.4775 11.7047 39.4775 11.7043C39.4775 11.7039 39.4775 11.7035 39.4775 11.7031C39.4775 11.7026 39.4775 11.7022 39.4775 11.7018C39.4775 11.7014 39.4775 11.701 39.4775 11.7006C39.4775 11.7001 39.4775 11.6997 39.4775 11.6993C39.4775 11.6989 39.4775 11.6985 39.4775 11.698C39.4775 11.6976 39.4775 11.6972 39.4775 11.6968C39.4775 11.6964 39.4775 11.696 39.4775 11.6955C39.4775 11.6951 39.4775 11.6947 39.4775 11.6943C39.4775 11.6939 39.4775 11.6934 39.4775 11.693C39.4775 11.6926 39.4775 11.6922 39.4775 11.6918C39.4775 11.6913 39.4775 11.6909 39.4775 11.6905C39.4775 11.6901 39.4775 11.6897 39.4775 11.6893C39.4775 11.6888 39.4775 11.6884 39.4775 11.688C39.4775 11.6876 39.4775 11.6872 39.4775 11.6867C39.4775 11.6863 39.4775 11.6859 39.4775 11.6855C39.4775 11.6851 39.4775 11.6846 39.4775 11.6842C39.4775 11.6838 39.4775 11.6834 39.4775 11.683C39.4775 11.6825 39.4775 11.6821 39.4775 11.6817C39.4775 11.6813 39.4775 11.6809 39.4775 11.6804C39.4775 11.68 39.4775 11.6796 39.4775 11.6792C39.4775 11.6787 39.4775 11.6783 39.4775 11.6779C39.4775 11.6775 39.4775 11.6771 39.4775 11.6766C39.4775 11.6762 39.4775 11.6758 39.4775 11.6754C39.4775 11.675 39.4775 11.6745 39.4775 11.6741C39.4775 11.6737 39.4775 11.6733 39.4775 11.6728C39.4775 11.6724 39.4775 11.672 39.4775 11.6716C39.4775 11.6712 39.4775 11.6707 39.4775 11.6703C39.4775 11.6699 39.4775 11.6695 39.4775 11.669C39.4775 11.6686 39.4775 11.6682 39.4775 11.6678C39.4775 11.6674 39.4775 11.6669 39.4775 11.6665C39.4775 11.6661 39.4775 11.6657 39.4775 11.6652C39.4775 11.6648 39.4775 11.6644 39.4775 11.664C39.4775 11.6636 39.4775 11.6631 39.4775 11.6627C39.4775 11.6623 39.4775 11.6619 39.4775 11.6614C39.4775 11.661 39.4775 11.6606 39.4775 11.6602C39.4775 11.6597 39.4775 11.6593 39.4775 11.6589C39.4775 11.6585 39.4775 11.658 39.4775 11.6576C39.4775 11.6572 39.4775 11.6568 39.4775 11.6563C39.4775 11.6559 39.4775 11.6555 39.4775 11.6551C39.4775 11.6547 39.4775 11.6542 39.4775 11.6538C39.4775 11.6534 39.4775 11.653 39.4775 11.6525C39.4775 11.6521 39.4775 11.6517 39.4775 11.6513C39.4775 11.6508 39.4775 11.6504 39.4775 11.65C39.4775 11.6496 39.4775 11.6491 39.4775 11.6487C39.4775 11.6483 39.4775 11.6479 39.4775 11.6474C39.4775 11.647 39.4775 11.6466 39.4775 11.6461C39.4775 11.6457 39.4775 11.6453 39.4775 11.6449C39.4775 11.6444 39.4775 11.644 39.4775 11.6436C39.4775 11.6432 39.4775 11.6427 39.4775 11.6423C39.4775 11.6419 39.4775 11.6415 39.4775 11.641C39.4775 11.6406 39.4775 11.6402 39.4775 11.6398C39.4775 11.6393 39.4775 11.6389 39.4775 11.6385C39.4775 11.638 39.4775 11.6376 39.4775 11.6372C39.4775 11.6368 39.4775 11.6363 39.4775 11.6359C39.4775 11.6355 39.4775 11.6351 39.4775 11.6346C39.4775 11.6342 39.4775 11.6338 39.4775 11.6333C39.4775 11.6329 39.4775 11.6325 39.4775 11.6321C39.4775 11.6316 39.4775 11.6312 39.4775 11.6308C39.4775 11.6304 39.4775 11.6299 39.4775 11.6295C39.4775 11.6291 39.4775 11.6286 39.4775 11.6282C39.4775 11.6278 39.4775 11.6274 39.4775 11.6269C39.4775 11.6265 39.4775 11.6261 39.4775 11.6256C39.4775 11.6252 39.4775 11.6248 39.4775 11.6244C39.4775 11.6239 39.4775 11.6235 39.4775 11.6231C39.4775 11.6226 39.4775 11.6222 39.4775 11.6218C39.4775 11.6214 39.4775 11.6209 39.4775 11.6205C39.4775 11.6201 39.4775 11.6196 39.4775 11.6192C39.4775 11.6188 39.4775 11.6183 39.4775 11.6179C39.4775 11.6175 39.4775 11.6171 39.4775 11.6166C39.4775 11.6162 39.4775 11.6158 39.4775 11.6153C39.4775 11.6149 39.4775 11.6145 39.4775 11.614C39.4775 11.6136 39.4775 11.6132 39.4775 11.6128C39.4775 11.6123 39.4775 11.6119 39.4775 11.6115C39.4775 11.611 39.4775 11.6106 39.4775 11.6102C39.4775 11.6097 39.4775 11.6093 39.4775 11.6089C39.4775 11.6084 39.4775 11.608 39.4775 11.6076C39.4775 11.6072 39.4775 11.6067 39.4775 11.6063C39.4775 11.6059 39.4775 11.6054 39.4775 11.605C39.4775 11.6046 39.4775 11.6041 39.4775 11.6037C39.4775 11.6033 39.4775 11.6028 39.4775 11.6024C39.4775 11.602 39.4775 11.6015 39.4775 11.6011C39.4775 11.6007 39.4775 11.6002 39.4775 11.5998C39.4775 11.5994 39.4775 11.5989 39.4775 11.5985C39.4775 11.5981 39.4775 11.5976 39.4775 11.5972C39.4775 11.5968 39.4775 11.5963 39.4775 11.5959C39.4775 11.5955 39.4775 11.595 39.4775 11.5946C39.4775 11.5942 39.4775 11.5937 39.4775 11.5933C39.4775 11.5929 39.4775 11.5924 39.4775 11.592C39.4775 11.5916 39.4775 11.5911 39.4775 11.5907C39.4775 11.5903 39.4775 11.5898 39.4775 11.5894C39.4775 11.589 39.4775 11.5885 39.4775 11.5881C39.4775 11.5877 39.4775 11.5872 39.4775 11.5868C39.4775 11.5864 39.4775 11.5859 39.4775 11.5855C39.4775 11.5851 39.4775 11.5846 39.4775 11.5842C39.4775 11.5838 39.4775 11.5833 39.4775 11.5829C39.4775 11.5825 39.4775 11.582 39.4775 11.5816C39.4775 11.5812 39.4775 11.5807 39.4775 11.5803C39.4775 11.5798 39.4775 11.5794 39.4775 11.579C39.4775 11.5785 39.4775 11.5781 39.4775 11.5777C39.4775 11.5772 39.4775 11.5768 39.4775 11.5764C39.4775 11.5759 39.4775 11.5755 39.4775 11.5751C39.4775 11.5746 39.4775 11.5742 39.4775 11.5737C39.4775 11.5733 39.4775 11.5729 39.4775 11.5724C39.4775 11.572 39.4775 11.5716 39.4775 11.5711C39.4775 11.5707 39.4775 11.5703 39.4775 11.5698C39.4775 11.5694 39.4775 11.5689 39.4775 11.5685C39.4775 11.5681 39.4775 11.5676 39.4775 11.5672C39.4775 11.5668 39.4775 11.5663 39.4775 11.5659C39.4775 11.5655 39.4775 11.565 39.4775 11.5646C39.4775 11.5641 39.4775 11.5637 39.4775 11.5633C39.4775 11.5628 39.4775 11.5624 39.4775 11.562C39.4775 11.5615 39.4775 11.5611 39.4775 11.5606C39.4775 11.5602 39.4775 11.5598 39.4775 11.5593C39.4775 11.5589 39.4775 11.5584 39.4775 11.558C39.4775 11.5576 39.4775 11.5571 39.4775 11.5567C39.4775 11.5563 39.4775 11.5558 39.4775 11.5554C39.4775 11.5549 39.4775 11.5545 39.4775 11.5541C39.4775 11.5536 39.4775 11.5532 39.4775 11.5527C39.4775 11.5523 39.4775 11.5519 39.4775 11.5514C39.4775 11.551 39.4775 11.5505 39.4775 11.5501C39.4775 11.5497 39.4775 11.5492 39.4775 11.5488C39.4775 11.5483 39.4775 11.5479 39.4775 11.5475C39.4775 11.547 39.4775 11.5466 39.4775 11.5461C39.4775 11.5457 39.4775 11.5453 39.4775 11.5448C39.4775 11.5444 39.4775 11.5439 39.4775 11.5435C39.4775 11.5431 39.4775 11.5426 39.4775 11.5422C39.4775 11.5417 39.4775 11.5413 39.4775 11.5409C39.4775 11.5404 39.4775 11.54 39.4775 11.5395C39.4775 11.5391 39.4775 11.5387 39.4775 11.5382C39.4775 11.5378 39.4775 11.5373 39.4775 11.5369C39.4775 11.5365 39.4775 11.536 39.4775 11.5356C39.4775 11.5351 39.4775 11.5347 39.4775 11.5342C39.4775 11.5338 39.4775 11.5334 39.4775 11.5329C39.4775 11.5325 39.4775 11.532 39.4775 11.5316C39.4775 11.5311 39.4775 11.5307 39.4775 11.5303C39.4775 11.5298 39.4775 11.5294 39.4775 11.5289C39.4775 11.5285 39.4775 11.5281 39.4775 11.5276C39.4775 11.5272 39.4775 11.5267 39.4775 11.5263C39.4775 11.5258 39.4775 11.5254 39.4775 11.525C39.4775 11.5245 39.4775 11.5241 39.4775 11.5236C39.4775 11.5232 39.4775 11.5227 39.4775 11.5223C39.4775 11.5218 39.4775 11.5214 39.4775 11.521C39.4775 11.5205 39.4775 11.5201 39.4775 11.5196C39.4775 11.5192 39.4775 11.5187 39.4775 11.5183C39.4775 11.5179 39.4775 11.5174 39.4775 11.517C39.4775 11.5165 39.4775 11.5161 39.4775 11.5156C39.4775 11.5152 39.4775 11.5147 39.4775 11.5143C39.4775 11.5139 39.4775 11.5134 39.4775 11.513C39.4775 11.5125 39.4775 11.5121 39.4775 11.5116C39.4775 11.5112 39.4775 11.5107 39.4775 11.5103C39.4775 11.5099 39.4775 11.5094 39.4775 11.509C39.4775 11.5085 39.4775 11.5081 39.4775 11.5076C39.4775 11.5072 39.4775 11.5067 39.4775 11.5063C39.4775 11.5058 39.4775 11.5054 39.4775 11.505C39.4775 11.5045 39.4775 11.5041 39.4775 11.5036C39.4775 11.5032 39.4775 11.5027 39.4775 11.5023C39.4775 11.5018 39.4775 11.5014 39.4775 11.5009C39.4775 11.5005 39.4775 11.5 39.4775 11.4996C39.4775 11.4991 39.4775 11.4987 39.4775 11.4983C39.4775 11.4978 39.4775 11.4974 39.4775 11.4969C39.4775 11.4965 39.4775 11.496 39.4775 11.4956C39.4775 11.4951 39.4775 11.4947 39.4775 11.4942C39.4775 11.4938 39.4775 11.4933 39.4775 11.4929C39.4775 11.4924 39.4775 11.492 39.4775 11.4915C39.4775 11.4911 39.4775 11.4907 39.4775 11.4902C39.4775 11.4898 39.4775 11.4893 39.4775 11.4889C39.4775 11.4884 39.4775 11.488 39.4775 11.4875C39.4775 11.4871 39.4775 11.4866 39.4775 11.4862C39.4775 11.4857 39.4775 11.4853 39.4775 11.4848C39.4775 11.4844 39.4775 11.4839 39.4775 11.4835C39.4775 11.483 39.4775 11.4826 39.4775 11.4821C39.4775 11.4817 39.4775 11.4812 39.4775 11.4808C39.4775 11.4803 39.4775 11.4799 39.4775 11.4794C39.4775 11.479 39.4775 11.4785 39.4775 11.4781C39.4775 11.4776 39.4775 11.4772 39.4775 11.4767C39.4775 11.4763 39.4775 11.4758 39.4775 11.4754C39.4775 11.4749 39.4775 11.4745 39.4775 11.474C39.4775 11.4736 39.4775 11.4731 39.4775 11.4727C39.4775 11.4722 39.4775 11.4718 39.4775 11.4713C39.4775 11.4709 39.4775 11.4704 39.4775 11.47C39.4775 11.4695 39.4775 11.4691 39.4775 11.4686C39.4775 11.4682 39.4775 11.4677 39.4775 11.4673C39.4775 11.4668 39.4775 11.4664 39.4775 11.4659C39.4775 11.4655 39.4775 11.465 39.4775 11.4646C39.4775 11.4641 39.4775 11.4637 39.4775 11.4632C39.4775 11.4628 39.4775 11.4623 39.4775 11.4619C39.4775 11.4614 39.4775 11.461 39.4775 11.4605C39.4775 11.4601 39.4775 11.4596 39.4775 11.4592C39.4775 11.4587 39.4775 11.4582 39.4775 11.4578C39.4775 11.4573 39.4775 11.4569 39.4775 11.4564C39.4775 11.456 39.4775 11.4555 39.4775 11.4551C39.4775 11.4546 39.4775 11.4542 39.4775 11.4537C39.4775 11.4533 39.4775 11.4528 39.4775 11.4524C39.4775 11.4519 39.4775 11.4515 39.4775 11.451C39.4775 11.4505 39.4775 11.4501 39.4775 11.4496C39.4775 11.4492 39.4775 11.4487 39.4775 11.4483C39.4775 11.4478 39.4775 11.4474 39.4775 11.4469C39.4775 11.4465 39.4775 11.446 39.4775 11.4456C39.4775 11.4451 39.4775 11.4446 39.4775 11.4442C39.4775 11.4437 39.4775 11.4433 39.4775 11.4428C39.4775 11.4424 39.4775 11.4419 39.4775 11.4415C39.4775 11.441 39.4775 11.4406 39.4775 11.4401C39.4775 11.4396 39.4775 11.4392 39.4775 11.4387C39.4775 11.4383 39.4775 11.4378 39.4775 11.4374C39.4775 11.4369 39.4775 11.4365 39.4775 11.436C39.4775 11.4356 39.4775 11.4351 39.4775 11.4346C39.4775 11.4342 39.4775 11.4337 39.4775 11.4333C39.4775 11.4328 39.4775 11.4324 39.4775 11.4319C39.4775 11.4315 39.4775 11.431 39.4775 11.4305C39.4775 11.4301 39.4775 11.4296 39.4775 11.4292C39.4775 11.4287 39.4775 11.4283 39.4775 11.4278C39.4775 11.4273 39.4775 11.4269 39.4775 11.4264C39.4775 11.426 39.4775 11.4255 39.4775 11.4251C39.4775 11.4246 39.4775 11.4241 39.4775 11.4237C39.4775 11.4232 39.4775 11.4228 39.4775 11.4223C39.4775 11.4219 39.4775 11.4214 39.4775 11.4209C39.4775 11.4205 39.4775 11.42 39.4775 11.4196C39.4775 11.4191 39.4775 11.4187 39.4775 11.4182C39.4775 11.4177 39.4775 11.4173 39.4775 11.4168C39.4775 11.4164 39.4775 11.4159 39.4775 11.4155C39.4775 11.415 39.4775 11.4145 39.4775 11.4141C39.4775 11.4136 39.4775 11.4132 39.4775 11.4127C39.4775 11.4122 39.4775 11.4118 39.4775 11.4113C39.4775 11.4109 39.4775 11.4104 39.4775 11.41C39.4775 11.4095 39.4775 11.409 39.4775 11.4086C39.4775 11.4081 39.4775 11.4077 39.4775 11.4072C39.4775 11.4067 39.4775 11.4063 39.4775 11.4058C39.4775 11.4054 39.4775 11.4049 39.4775 11.4044C39.4775 11.404 39.4775 11.4035 39.4775 11.4031C39.4775 11.4026 39.4775 11.4021 39.4775 11.4017C39.4775 11.4012 39.4775 11.4008 39.4775 11.4003C39.4775 11.3998 39.4775 11.3994 39.4775 11.3989C39.4775 11.3985 39.4775 11.398 39.4775 11.3975C39.4775 11.3971 39.4775 11.3966 39.4775 11.3962C39.4775 11.3957 39.4775 11.3952 39.4775 11.3948C39.4775 11.3943 39.4775 11.3939 39.4775 11.3934C39.4775 11.3929 39.4775 11.3925 39.4775 11.392C39.4775 11.3915 39.4775 11.3911 39.4775 11.3906C39.4775 11.3902 39.4775 11.3897 39.4775 11.3892C39.4775 11.3888 39.4775 11.3883 39.4775 11.3879C39.4775 11.3874 39.4775 11.3869 39.4775 11.3865C39.4775 11.386 39.4775 11.3855 39.4775 11.3851C39.4775 11.3846 39.4775 11.3842 39.4775 11.3837C39.4775 11.3832 39.4775 11.3828 39.4775 11.3823C39.4775 11.3818 39.4775 11.3814 39.4775 11.3809C39.4775 11.3805 39.4775 11.38 39.4775 11.3795C39.4775 11.3791 39.4775 11.3786 39.4775 11.3781C39.4775 11.3777 39.4775 11.3772 39.4775 11.3768C39.4775 11.3763 39.4775 11.3758 39.4775 11.3754C39.4775 11.3749 39.4775 11.3744 39.4775 11.374C39.4775 11.3735 39.4775 11.373 39.4775 11.3726C39.4775 11.3721 39.4775 11.3717 39.4775 11.3712C39.4775 11.3707 39.4775 11.3703 39.4775 11.3698C39.4775 11.3693 39.4775 11.3689 39.4775 11.3684C39.4775 11.3679 39.4775 11.3675 39.4775 11.367C39.4775 11.3665 39.4775 11.3661 39.4775 11.3656C39.4775 11.3651 39.4775 11.3647 39.4775 11.3642C39.4775 11.3638 39.4775 11.3633 39.4775 11.3628C39.4775 11.3624 39.4775 11.3619 39.4775 11.3614C39.4775 11.361 39.4775 11.3605 39.4775 11.36C39.4775 11.3596 39.4775 11.3591 39.4775 11.3586C39.4775 11.3582 39.4775 11.3577 39.4775 11.3572C39.4775 11.3568 39.4775 11.3563 39.4775 11.3558C39.4775 11.3554 39.4775 11.3549 39.4775 11.3544C39.4775 11.354 39.4775 11.3535 39.4775 11.353C39.4775 11.3526 39.4775 11.3521 39.4775 11.3516C39.4775 11.3512 39.4775 11.3507 39.4775 11.3502C39.4775 11.3498 39.4775 11.3493 39.4775 11.3488C39.4775 11.3484 39.4775 11.3479 39.4775 11.3474C39.4775 11.347 39.4775 11.3465 39.4775 11.346C39.4775 11.3456 39.4775 11.3451 39.4775 11.3446C39.4775 11.3442 39.4775 11.3437 39.4775 11.3432C39.4775 11.3428 39.4775 11.3423 39.4775 11.3418C39.4775 11.3414 39.4775 11.3409 39.4775 11.3404C39.4775 11.34 39.4775 11.3395 39.4775 11.339C39.4775 11.3385 39.4775 11.3381 39.4775 11.3376C39.4775 11.3371 39.4775 11.3367 39.4775 11.3362C39.4775 11.3357 39.4775 11.3353 39.4775 11.3348C39.4775 11.3343 39.4775 11.3339 39.4775 11.3334C39.4775 11.3329 39.4775 11.3325 39.4775 11.332C39.4775 11.3315 39.4775 11.331 39.4775 11.3306C39.4775 11.3301 39.4775 11.3296 39.4775 11.3292C39.4775 11.3287 39.4775 11.3282 39.4775 11.3278C39.4775 11.3273 39.4775 11.3268 39.4775 11.3263C39.4775 11.3259 39.4775 11.3254 39.4775 11.3249C39.4775 11.3245 39.4775 11.324 39.4775 11.3235C39.4775 11.3231 39.4775 11.3226 39.4775 11.3221C39.4775 11.3216 39.4775 11.3212 39.4775 11.3207C39.4775 11.3202 39.4775 11.3198 39.4775 11.3193C39.4775 11.3188 39.4775 11.3183 39.4775 11.3179C39.4775 11.3174 39.4775 11.3169 39.4775 11.3165C39.4775 11.316 39.4775 11.3155 39.4775 11.315C39.4775 11.3146 39.4775 11.3141 39.4775 11.3136C39.4775 11.3132 39.4775 11.3127 39.4775 11.3122C39.4775 11.3117 39.4775 11.3113 39.4775 11.3108C39.4775 11.3103 39.4775 11.3099 39.4775 11.3094C39.4775 11.3089 39.4775 11.3084 39.4775 11.308C39.4775 11.3075 39.4775 11.307 39.4775 11.3065C39.4775 11.3061 39.4775 11.3056 39.4775 11.3051C39.4775 11.3047 39.4775 11.3042 39.4775 11.3037C39.4775 11.3032 39.4775 11.3028 39.4775 11.3023C39.4775 11.3018 39.4775 11.3013 39.4775 11.3009C39.4775 11.3004 39.4775 11.2999 39.4775 11.2995C39.4775 11.299 39.4775 11.2985 39.4775 11.298C39.4775 11.2976 39.4775 11.2971 39.4775 11.2966C39.4775 11.2961 39.4775 11.2957 39.4775 11.2952C39.4775 11.2947 39.4775 11.2942 39.4775 11.2938C39.4775 11.2933 39.4775 11.2928 39.4775 11.2923C39.4775 11.2919 39.4775 11.2914 39.4775 11.2909C39.4775 11.2904 39.4775 11.29 39.4775 11.2895C39.4775 11.289 39.4775 11.2885 39.4775 11.2881C39.4775 11.2876 39.4775 11.2871 39.4775 11.2866C39.4775 11.2862 39.4775 11.2857 39.4775 11.2852C39.4775 11.2847 39.4775 11.2843 39.4775 11.2838C39.4775 11.2833 39.4775 11.2828 39.4775 11.2824C39.4775 11.2819 39.4775 11.2814 39.4775 11.2809C39.4775 11.2805 39.4775 11.28 39.4775 11.2795C39.4775 11.279 39.4775 11.2786 39.4775 11.2781C39.4775 11.2776 39.4775 11.2771 39.4775 11.2766C39.4775 11.2762 39.4775 11.2757 39.4775 11.2752C39.4775 11.2747 39.4775 11.2743 39.4775 11.2738C39.4775 11.2733 39.4775 11.2728 39.4775 11.2724C39.4775 11.2719 39.4775 11.2714 39.4775 11.2709C39.4775 11.2704 39.4775 11.27 39.4775 11.2695C39.4775 11.269 39.4775 11.2685 39.4775 11.2681C39.4775 11.2676 39.4775 11.2671 39.4775 11.2666C39.4775 11.2661 39.4775 11.2657 39.4775 11.2652C39.4775 11.2647 39.4775 11.2642 39.4775 11.2638C39.4775 11.2633 39.4775 11.2628 39.4775 11.2623C39.4775 11.2618 39.4775 11.2614 39.4775 11.2609C39.4775 11.2604 39.4775 11.2599 39.4775 11.2594C39.4775 11.259 39.4775 11.2585 39.4775 11.258C39.4775 11.2575 39.4775 11.2571 39.4775 11.2566C39.4775 11.2561 39.4775 11.2556 39.4775 11.2551C39.4775 11.2547 39.4775 11.2542 39.4775 11.2537C39.4775 11.2532 39.4775 11.2527 39.4775 11.2523C39.4775 11.2518 39.4775 11.2513 39.4775 11.2508C39.4775 11.2503 39.4775 11.2499 39.4775 11.2494C39.4775 11.2489 39.4775 11.2484 39.4775 11.2479C39.4775 11.2475 39.4775 11.247 39.4775 11.2465C39.4775 11.246 39.4775 11.2455 39.4775 11.2451C39.4775 11.2446 39.4775 11.2441 39.4775 11.2436C39.4775 11.2431 39.4775 11.2427 39.4775 11.2422C39.4775 11.2417 39.4775 11.2412 39.4775 11.2407C39.4775 11.2402 39.4775 11.2398 39.4775 11.2393C39.4775 11.2388 39.4775 11.2383 39.4775 11.2378C39.4775 11.2374 39.4775 11.2369 39.4775 11.2364C39.4775 11.2359 39.4775 11.2354 39.4775 11.2349C39.4775 11.2345 39.4775 11.234 39.4775 11.2335C39.4775 11.233 39.4775 11.2325 39.4775 11.2321C39.4775 11.2316 39.4775 11.2311 39.4775 11.2306C39.4775 11.2301 39.4775 11.2296 39.4775 11.2292C39.4775 11.2287 39.4775 11.2282 39.4775 11.2277C39.4775 11.2272 39.4775 11.2267 39.4775 11.2263C39.4775 11.2258 39.4775 11.2253 39.4775 11.2248C39.4775 11.2243 39.4775 11.2238 39.4775 11.2234C39.4775 11.2229 39.4775 11.2224 39.4775 11.2219C39.4775 11.2214 39.4775 11.2209 39.4775 11.2205C39.4775 11.22 39.4775 11.2195 39.4775 11.219C39.4775 11.2185 39.4775 11.218 39.4775 11.2176C39.4775 11.2171 39.4775 11.2166 39.4775 11.2161C39.4775 11.2156 39.4775 11.2151 39.4775 11.2146C39.4775 11.2142 39.4775 11.2137 39.4775 11.2132C39.4775 11.2127 39.4775 11.2122 39.4775 11.2117C39.4775 11.2113 39.4775 11.2108 39.4775 11.2103C39.4775 11.2098 39.4775 11.2093 39.4775 11.2088C39.4775 11.2083 39.4775 11.2079 39.4775 11.2074C39.4775 11.2069 39.4775 11.2064 39.4775 11.2059C39.4775 11.2054 39.4775 11.2049 39.4775 11.2045C39.4775 11.204 39.4775 11.2035 39.4775 11.203C39.4775 11.2025 39.4775 11.202 39.4775 11.2015C39.4775 11.2011 39.4775 11.2006 39.4775 11.2001C39.4775 11.1996 39.4775 11.1991 39.4775 11.1986C39.4775 11.1981 39.4775 11.1977 39.4775 11.1972C39.4775 11.1967 39.4775 11.1962 39.4775 11.1957C39.4775 11.1952 39.4775 11.1947 39.4775 11.1942C39.4775 11.1938 39.4775 11.1933 39.4775 11.1928C39.4775 11.1923 39.4775 11.1918 39.4775 11.1913C39.4775 11.1908 39.4775 11.1903 39.4775 11.1899C39.4775 11.1894 39.4775 11.1889 39.4775 11.1884C39.4775 11.1879 39.4775 11.1874 39.4775 11.1869C39.4775 11.1864 39.4775 11.186 39.4775 11.1855C39.4775 11.185 39.4775 11.1845 39.4775 11.184C39.4775 11.1835 39.4775 11.183 39.4775 11.1825C39.4775 11.182 39.4775 11.1816 39.4775 11.1811C39.4775 11.1806 39.4775 11.1801 39.4775 11.1796C39.4775 11.1791 39.4775 11.1786 39.4775 11.1781C39.4775 11.1776 39.4775 11.1772 39.4775 11.1767C39.4775 11.1762 39.4775 11.1757 39.4775 11.1752C39.4775 11.1747 39.4775 11.1742 39.4775 11.1737C39.4775 11.1732 39.4775 11.1727 39.4775 11.1723C39.4775 11.1718 39.4775 11.1713 39.4775 11.1708C39.4775 11.1703 39.4775 11.1698 39.4775 11.1693C39.4775 11.1688 39.4775 11.1683 39.4775 11.1678C39.4775 11.1674 39.4775 11.1669 39.4775 11.1664C39.4775 11.1659 39.4775 11.1654 39.4775 11.1649C39.4775 11.1644 39.4775 11.1639 39.4775 11.1634C39.4775 11.1629 39.4775 11.1624 39.4775 11.162C39.4775 11.1615 39.4775 11.161 39.4775 11.1605C39.4775 11.16 39.4775 11.1595 39.4775 11.159C39.4775 11.1585 39.4775 11.158 39.4775 11.1575C39.4775 11.157 39.4775 11.1565 39.4775 11.1561C39.4775 11.1556 39.4775 11.1551 39.4775 11.1546C39.4775 11.1541 39.4775 11.1536 39.4775 11.1531C39.4775 11.1526 39.4775 11.1521 39.4775 11.1516C39.4775 11.1511 39.4775 11.1506 39.4775 11.1501C39.4775 11.1496 39.4775 11.1492 39.4775 11.1487C39.4775 11.1482 39.4775 11.1477 39.4775 11.1472C39.4775 11.1467 39.4775 11.1462 39.4775 11.1457C39.4775 11.1452 39.4775 11.1447 39.4775 11.1442C39.4775 11.1437 39.4775 11.1432 39.4775 11.1427C39.4775 11.1422 39.4775 11.1418 39.4775 11.1413C39.4775 11.1408 39.4775 11.1403 39.4775 11.1398C39.4775 11.1393 39.4775 11.1388 39.4775 11.1383C39.4775 11.1378 39.4775 11.1373 39.4775 11.1368C39.4775 11.1363 39.4775 11.1358 39.4775 11.1353C39.4775 11.1348 39.4775 11.1343 39.4775 11.1338C39.4775 11.1334 39.4775 11.1329 39.4775 11.1324C39.4775 11.1319 39.4775 11.1314 39.4775 11.1309C39.4775 11.1304 39.4775 11.1299 39.4775 11.1294C39.4775 11.1289 39.4775 11.1284 39.4775 11.1279C39.4775 11.1274 39.4775 11.1269 39.4775 11.1264C39.4775 11.1259 39.4775 11.1254 39.4775 11.1249C39.4775 11.1244 39.4775 11.1239 39.4775 11.1234C39.4775 11.1229 39.4775 11.1224 39.4775 11.122C39.4775 11.1215 39.4775 11.121 39.4775 11.1205C39.4775 11.12 39.4775 11.1195 39.4775 11.119C39.4775 11.1185 39.4775 11.118 39.4775 11.1175C39.4775 11.117 39.4775 11.1165 39.4775 11.116C39.4775 11.1155 39.4775 11.115 39.4775 11.1145C39.4775 11.114 39.4775 11.1135 39.4775 11.113C39.4775 11.1125 39.4775 11.112 39.4775 11.1115C39.4775 11.111 39.4775 11.1105 39.4775 11.11C39.4775 11.1095 39.4775 11.109 39.4775 11.1085C39.4775 11.108 39.4775 11.1075 39.4775 11.107C39.4775 11.1065 39.4775 11.106 39.4775 11.1055C39.4775 11.105 39.4775 11.1045 39.4775 11.104C39.4775 11.1035 39.4775 11.103 39.4775 11.1025C39.4775 11.102 39.4775 11.1016 39.4775 11.1011C39.4775 11.1006 39.4775 11.1001 39.4775 11.0996C39.4775 11.0991 39.4775 11.0986 39.4775 11.0981C39.4775 11.0976 39.4775 11.0971 39.4775 11.0966C39.4775 11.0961 39.4775 11.0956 39.4775 11.0951C39.4775 11.0946 39.4775 11.0941 39.4775 11.0936C39.4775 11.0931 39.4775 11.0926 39.4775 11.0921C39.4775 11.0916 39.4775 11.0911 39.4775 11.0906C39.4775 11.0901 39.4775 11.0896 39.4775 11.0891C39.4775 11.0886 39.4775 11.0881 39.4775 11.0876C39.4775 11.0871 39.4775 11.0866 39.4775 11.0861C39.4775 11.0856 39.4775 11.0851 39.4775 11.0846C39.4775 11.0841 39.4775 11.0836 39.4775 11.083C39.4775 11.0825 39.4775 11.082 39.4775 11.0815C39.4775 11.081 39.4775 11.0805 39.4775 11.08C39.4775 11.0795 39.4775 11.079 39.4775 11.0785C39.4775 11.078 39.4775 11.0775 39.4775 11.077C39.4775 11.0765 39.4775 11.076 39.4775 11.0755C39.4775 11.075 39.4775 11.0745 39.4775 11.074C39.4775 11.0735 39.4775 11.073 39.4775 11.0725C39.4775 11.072 39.4775 11.0715 39.4775 11.071C39.4775 11.0705 39.4775 11.07 39.4775 11.0695C39.4775 11.069 39.4775 11.0685 39.4775 11.068C39.4775 11.0675 39.4775 11.067 39.4775 11.0665C39.4775 11.066 39.4775 11.0655 39.4775 11.065C39.4775 11.0645 39.4775 11.064 39.4775 11.0635C39.4775 11.063 39.4775 11.0624 39.4775 11.0619C39.4775 11.0614 39.4775 11.0609 39.4775 11.0604C39.4775 11.0599 39.4775 11.0594 39.4775 11.0589C39.4775 11.0584 39.4775 11.0579 39.4775 11.0574C39.4775 11.0569 39.4775 11.0564 39.4775 11.0559C39.4775 11.0554 39.4775 11.0549 39.4775 11.0544C39.4775 11.0539 39.4775 11.0534 39.4775 11.0529C39.4775 11.0524 39.4775 11.0519 39.4775 11.0514C39.4775 11.0508 39.4775 11.0503 39.4775 11.0498C39.4775 11.0493 39.4775 11.0488 39.4775 11.0483C39.4775 11.0478 39.4775 11.0473 39.4775 11.0468C39.4775 11.0463 39.4775 11.0458 39.4775 11.0453C39.4775 11.0448 39.4775 11.0443 39.4775 11.0438C39.4775 11.0433 39.4775 11.0428 39.4775 11.0423C39.4775 11.0417 39.4775 11.0412 39.4775 11.0407C39.4775 11.0402 39.4775 11.0397 39.4775 11.0392C39.4775 11.0387 39.4775 11.0382 39.4775 11.0377C39.4775 11.0372 39.4775 11.0367 39.4775 11.0362C39.4775 11.0357 39.4775 11.0352 39.4775 11.0347C39.4775 11.0341 39.4775 11.0336 39.4775 11.0331C39.4775 11.0326 39.4775 11.0321 39.4775 11.0316C39.4775 11.0311 39.4775 11.0306 39.4775 11.0301C39.4775 11.0296 39.4775 11.0291 39.4775 11.0286C39.4775 11.0281 39.4775 11.0275 39.4775 11.027C39.4775 11.0265 39.4775 11.026 39.4775 11.0255C39.4775 11.025 39.4775 11.0245 39.4775 11.024C39.4775 11.0235 39.4775 11.023 39.4775 11.0225H37.4775C37.4775 11.023 37.4775 11.0235 37.4775 11.024C37.4775 11.0245 37.4775 11.025 37.4775 11.0255C37.4775 11.026 37.4775 11.0265 37.4775 11.027C37.4775 11.0275 37.4775 11.0281 37.4775 11.0286C37.4775 11.0291 37.4775 11.0296 37.4775 11.0301C37.4775 11.0306 37.4775 11.0311 37.4775 11.0316C37.4775 11.0321 37.4775 11.0326 37.4775 11.0331C37.4775 11.0336 37.4775 11.0341 37.4775 11.0347C37.4775 11.0352 37.4775 11.0357 37.4775 11.0362C37.4775 11.0367 37.4775 11.0372 37.4775 11.0377C37.4775 11.0382 37.4775 11.0387 37.4775 11.0392C37.4775 11.0397 37.4775 11.0402 37.4775 11.0407C37.4775 11.0412 37.4775 11.0417 37.4775 11.0423C37.4775 11.0428 37.4775 11.0433 37.4775 11.0438C37.4775 11.0443 37.4775 11.0448 37.4775 11.0453C37.4775 11.0458 37.4775 11.0463 37.4775 11.0468C37.4775 11.0473 37.4775 11.0478 37.4775 11.0483C37.4775 11.0488 37.4775 11.0493 37.4775 11.0498C37.4775 11.0503 37.4775 11.0508 37.4775 11.0514C37.4775 11.0519 37.4775 11.0524 37.4775 11.0529C37.4775 11.0534 37.4775 11.0539 37.4775 11.0544C37.4775 11.0549 37.4775 11.0554 37.4775 11.0559C37.4775 11.0564 37.4775 11.0569 37.4775 11.0574C37.4775 11.0579 37.4775 11.0584 37.4775 11.0589C37.4775 11.0594 37.4775 11.0599 37.4775 11.0604C37.4775 11.0609 37.4775 11.0614 37.4775 11.0619C37.4775 11.0624 37.4775 11.063 37.4775 11.0635C37.4775 11.064 37.4775 11.0645 37.4775 11.065C37.4775 11.0655 37.4775 11.066 37.4775 11.0665C37.4775 11.067 37.4775 11.0675 37.4775 11.068C37.4775 11.0685 37.4775 11.069 37.4775 11.0695C37.4775 11.07 37.4775 11.0705 37.4775 11.071C37.4775 11.0715 37.4775 11.072 37.4775 11.0725C37.4775 11.073 37.4775 11.0735 37.4775 11.074C37.4775 11.0745 37.4775 11.075 37.4775 11.0755C37.4775 11.076 37.4775 11.0765 37.4775 11.077C37.4775 11.0775 37.4775 11.078 37.4775 11.0785C37.4775 11.079 37.4775 11.0795 37.4775 11.08C37.4775 11.0805 37.4775 11.081 37.4775 11.0815C37.4775 11.082 37.4775 11.0825 37.4775 11.083C37.4775 11.0836 37.4775 11.0841 37.4775 11.0846C37.4775 11.0851 37.4775 11.0856 37.4775 11.0861C37.4775 11.0866 37.4775 11.0871 37.4775 11.0876C37.4775 11.0881 37.4775 11.0886 37.4775 11.0891C37.4775 11.0896 37.4775 11.0901 37.4775 11.0906C37.4775 11.0911 37.4775 11.0916 37.4775 11.0921C37.4775 11.0926 37.4775 11.0931 37.4775 11.0936C37.4775 11.0941 37.4775 11.0946 37.4775 11.0951C37.4775 11.0956 37.4775 11.0961 37.4775 11.0966C37.4775 11.0971 37.4775 11.0976 37.4775 11.0981C37.4775 11.0986 37.4775 11.0991 37.4775 11.0996C37.4775 11.1001 37.4775 11.1006 37.4775 11.1011C37.4775 11.1016 37.4775 11.102 37.4775 11.1025C37.4775 11.103 37.4775 11.1035 37.4775 11.104C37.4775 11.1045 37.4775 11.105 37.4775 11.1055C37.4775 11.106 37.4775 11.1065 37.4775 11.107C37.4775 11.1075 37.4775 11.108 37.4775 11.1085C37.4775 11.109 37.4775 11.1095 37.4775 11.11C37.4775 11.1105 37.4775 11.111 37.4775 11.1115C37.4775 11.112 37.4775 11.1125 37.4775 11.113C37.4775 11.1135 37.4775 11.114 37.4775 11.1145C37.4775 11.115 37.4775 11.1155 37.4775 11.116C37.4775 11.1165 37.4775 11.117 37.4775 11.1175C37.4775 11.118 37.4775 11.1185 37.4775 11.119C37.4775 11.1195 37.4775 11.12 37.4775 11.1205C37.4775 11.121 37.4775 11.1215 37.4775 11.122C37.4775 11.1224 37.4775 11.1229 37.4775 11.1234C37.4775 11.1239 37.4775 11.1244 37.4775 11.1249C37.4775 11.1254 37.4775 11.1259 37.4775 11.1264C37.4775 11.1269 37.4775 11.1274 37.4775 11.1279C37.4775 11.1284 37.4775 11.1289 37.4775 11.1294C37.4775 11.1299 37.4775 11.1304 37.4775 11.1309C37.4775 11.1314 37.4775 11.1319 37.4775 11.1324C37.4775 11.1329 37.4775 11.1334 37.4775 11.1338C37.4775 11.1343 37.4775 11.1348 37.4775 11.1353C37.4775 11.1358 37.4775 11.1363 37.4775 11.1368C37.4775 11.1373 37.4775 11.1378 37.4775 11.1383C37.4775 11.1388 37.4775 11.1393 37.4775 11.1398C37.4775 11.1403 37.4775 11.1408 37.4775 11.1413C37.4775 11.1418 37.4775 11.1422 37.4775 11.1427C37.4775 11.1432 37.4775 11.1437 37.4775 11.1442C37.4775 11.1447 37.4775 11.1452 37.4775 11.1457C37.4775 11.1462 37.4775 11.1467 37.4775 11.1472C37.4775 11.1477 37.4775 11.1482 37.4775 11.1487C37.4775 11.1492 37.4775 11.1496 37.4775 11.1501C37.4775 11.1506 37.4775 11.1511 37.4775 11.1516C37.4775 11.1521 37.4775 11.1526 37.4775 11.1531C37.4775 11.1536 37.4775 11.1541 37.4775 11.1546C37.4775 11.1551 37.4775 11.1556 37.4775 11.1561C37.4775 11.1565 37.4775 11.157 37.4775 11.1575C37.4775 11.158 37.4775 11.1585 37.4775 11.159C37.4775 11.1595 37.4775 11.16 37.4775 11.1605C37.4775 11.161 37.4775 11.1615 37.4775 11.162C37.4775 11.1624 37.4775 11.1629 37.4775 11.1634C37.4775 11.1639 37.4775 11.1644 37.4775 11.1649C37.4775 11.1654 37.4775 11.1659 37.4775 11.1664C37.4775 11.1669 37.4775 11.1674 37.4775 11.1678C37.4775 11.1683 37.4775 11.1688 37.4775 11.1693C37.4775 11.1698 37.4775 11.1703 37.4775 11.1708C37.4775 11.1713 37.4775 11.1718 37.4775 11.1723C37.4775 11.1727 37.4775 11.1732 37.4775 11.1737C37.4775 11.1742 37.4775 11.1747 37.4775 11.1752C37.4775 11.1757 37.4775 11.1762 37.4775 11.1767C37.4775 11.1772 37.4775 11.1776 37.4775 11.1781C37.4775 11.1786 37.4775 11.1791 37.4775 11.1796C37.4775 11.1801 37.4775 11.1806 37.4775 11.1811C37.4775 11.1816 37.4775 11.182 37.4775 11.1825C37.4775 11.183 37.4775 11.1835 37.4775 11.184C37.4775 11.1845 37.4775 11.185 37.4775 11.1855C37.4775 11.186 37.4775 11.1864 37.4775 11.1869C37.4775 11.1874 37.4775 11.1879 37.4775 11.1884C37.4775 11.1889 37.4775 11.1894 37.4775 11.1899C37.4775 11.1903 37.4775 11.1908 37.4775 11.1913C37.4775 11.1918 37.4775 11.1923 37.4775 11.1928C37.4775 11.1933 37.4775 11.1938 37.4775 11.1942C37.4775 11.1947 37.4775 11.1952 37.4775 11.1957C37.4775 11.1962 37.4775 11.1967 37.4775 11.1972C37.4775 11.1977 37.4775 11.1981 37.4775 11.1986C37.4775 11.1991 37.4775 11.1996 37.4775 11.2001C37.4775 11.2006 37.4775 11.2011 37.4775 11.2015C37.4775 11.202 37.4775 11.2025 37.4775 11.203C37.4775 11.2035 37.4775 11.204 37.4775 11.2045C37.4775 11.2049 37.4775 11.2054 37.4775 11.2059C37.4775 11.2064 37.4775 11.2069 37.4775 11.2074C37.4775 11.2079 37.4775 11.2083 37.4775 11.2088C37.4775 11.2093 37.4775 11.2098 37.4775 11.2103C37.4775 11.2108 37.4775 11.2113 37.4775 11.2117C37.4775 11.2122 37.4775 11.2127 37.4775 11.2132C37.4775 11.2137 37.4775 11.2142 37.4775 11.2146C37.4775 11.2151 37.4775 11.2156 37.4775 11.2161C37.4775 11.2166 37.4775 11.2171 37.4775 11.2176C37.4775 11.218 37.4775 11.2185 37.4775 11.219C37.4775 11.2195 37.4775 11.22 37.4775 11.2205C37.4775 11.2209 37.4775 11.2214 37.4775 11.2219C37.4775 11.2224 37.4775 11.2229 37.4775 11.2234C37.4775 11.2238 37.4775 11.2243 37.4775 11.2248C37.4775 11.2253 37.4775 11.2258 37.4775 11.2263C37.4775 11.2267 37.4775 11.2272 37.4775 11.2277C37.4775 11.2282 37.4775 11.2287 37.4775 11.2292C37.4775 11.2296 37.4775 11.2301 37.4775 11.2306C37.4775 11.2311 37.4775 11.2316 37.4775 11.2321C37.4775 11.2325 37.4775 11.233 37.4775 11.2335C37.4775 11.234 37.4775 11.2345 37.4775 11.2349C37.4775 11.2354 37.4775 11.2359 37.4775 11.2364C37.4775 11.2369 37.4775 11.2374 37.4775 11.2378C37.4775 11.2383 37.4775 11.2388 37.4775 11.2393C37.4775 11.2398 37.4775 11.2402 37.4775 11.2407C37.4775 11.2412 37.4775 11.2417 37.4775 11.2422C37.4775 11.2427 37.4775 11.2431 37.4775 11.2436C37.4775 11.2441 37.4775 11.2446 37.4775 11.2451C37.4775 11.2455 37.4775 11.246 37.4775 11.2465C37.4775 11.247 37.4775 11.2475 37.4775 11.2479C37.4775 11.2484 37.4775 11.2489 37.4775 11.2494C37.4775 11.2499 37.4775 11.2503 37.4775 11.2508C37.4775 11.2513 37.4775 11.2518 37.4775 11.2523C37.4775 11.2527 37.4775 11.2532 37.4775 11.2537C37.4775 11.2542 37.4775 11.2547 37.4775 11.2551C37.4775 11.2556 37.4775 11.2561 37.4775 11.2566C37.4775 11.2571 37.4775 11.2575 37.4775 11.258C37.4775 11.2585 37.4775 11.259 37.4775 11.2594C37.4775 11.2599 37.4775 11.2604 37.4775 11.2609C37.4775 11.2614 37.4775 11.2618 37.4775 11.2623C37.4775 11.2628 37.4775 11.2633 37.4775 11.2638C37.4775 11.2642 37.4775 11.2647 37.4775 11.2652C37.4775 11.2657 37.4775 11.2661 37.4775 11.2666C37.4775 11.2671 37.4775 11.2676 37.4775 11.2681C37.4775 11.2685 37.4775 11.269 37.4775 11.2695C37.4775 11.27 37.4775 11.2704 37.4775 11.2709C37.4775 11.2714 37.4775 11.2719 37.4775 11.2724C37.4775 11.2728 37.4775 11.2733 37.4775 11.2738C37.4775 11.2743 37.4775 11.2747 37.4775 11.2752C37.4775 11.2757 37.4775 11.2762 37.4775 11.2766C37.4775 11.2771 37.4775 11.2776 37.4775 11.2781C37.4775 11.2786 37.4775 11.279 37.4775 11.2795C37.4775 11.28 37.4775 11.2805 37.4775 11.2809C37.4775 11.2814 37.4775 11.2819 37.4775 11.2824C37.4775 11.2828 37.4775 11.2833 37.4775 11.2838C37.4775 11.2843 37.4775 11.2847 37.4775 11.2852C37.4775 11.2857 37.4775 11.2862 37.4775 11.2866C37.4775 11.2871 37.4775 11.2876 37.4775 11.2881C37.4775 11.2885 37.4775 11.289 37.4775 11.2895C37.4775 11.29 37.4775 11.2904 37.4775 11.2909C37.4775 11.2914 37.4775 11.2919 37.4775 11.2923C37.4775 11.2928 37.4775 11.2933 37.4775 11.2938C37.4775 11.2942 37.4775 11.2947 37.4775 11.2952C37.4775 11.2957 37.4775 11.2961 37.4775 11.2966C37.4775 11.2971 37.4775 11.2976 37.4775 11.298C37.4775 11.2985 37.4775 11.299 37.4775 11.2995C37.4775 11.2999 37.4775 11.3004 37.4775 11.3009C37.4775 11.3013 37.4775 11.3018 37.4775 11.3023C37.4775 11.3028 37.4775 11.3032 37.4775 11.3037C37.4775 11.3042 37.4775 11.3047 37.4775 11.3051C37.4775 11.3056 37.4775 11.3061 37.4775 11.3065C37.4775 11.307 37.4775 11.3075 37.4775 11.308C37.4775 11.3084 37.4775 11.3089 37.4775 11.3094C37.4775 11.3099 37.4775 11.3103 37.4775 11.3108C37.4775 11.3113 37.4775 11.3117 37.4775 11.3122C37.4775 11.3127 37.4775 11.3132 37.4775 11.3136C37.4775 11.3141 37.4775 11.3146 37.4775 11.315C37.4775 11.3155 37.4775 11.316 37.4775 11.3165C37.4775 11.3169 37.4775 11.3174 37.4775 11.3179C37.4775 11.3183 37.4775 11.3188 37.4775 11.3193C37.4775 11.3198 37.4775 11.3202 37.4775 11.3207C37.4775 11.3212 37.4775 11.3216 37.4775 11.3221C37.4775 11.3226 37.4775 11.3231 37.4775 11.3235C37.4775 11.324 37.4775 11.3245 37.4775 11.3249C37.4775 11.3254 37.4775 11.3259 37.4775 11.3263C37.4775 11.3268 37.4775 11.3273 37.4775 11.3278C37.4775 11.3282 37.4775 11.3287 37.4775 11.3292C37.4775 11.3296 37.4775 11.3301 37.4775 11.3306C37.4775 11.331 37.4775 11.3315 37.4775 11.332C37.4775 11.3325 37.4775 11.3329 37.4775 11.3334C37.4775 11.3339 37.4775 11.3343 37.4775 11.3348C37.4775 11.3353 37.4775 11.3357 37.4775 11.3362C37.4775 11.3367 37.4775 11.3371 37.4775 11.3376C37.4775 11.3381 37.4775 11.3385 37.4775 11.339C37.4775 11.3395 37.4775 11.34 37.4775 11.3404C37.4775 11.3409 37.4775 11.3414 37.4775 11.3418C37.4775 11.3423 37.4775 11.3428 37.4775 11.3432C37.4775 11.3437 37.4775 11.3442 37.4775 11.3446C37.4775 11.3451 37.4775 11.3456 37.4775 11.346C37.4775 11.3465 37.4775 11.347 37.4775 11.3474C37.4775 11.3479 37.4775 11.3484 37.4775 11.3488C37.4775 11.3493 37.4775 11.3498 37.4775 11.3502C37.4775 11.3507 37.4775 11.3512 37.4775 11.3516C37.4775 11.3521 37.4775 11.3526 37.4775 11.353C37.4775 11.3535 37.4775 11.354 37.4775 11.3544C37.4775 11.3549 37.4775 11.3554 37.4775 11.3558C37.4775 11.3563 37.4775 11.3568 37.4775 11.3572C37.4775 11.3577 37.4775 11.3582 37.4775 11.3586C37.4775 11.3591 37.4775 11.3596 37.4775 11.36C37.4775 11.3605 37.4775 11.361 37.4775 11.3614C37.4775 11.3619 37.4775 11.3624 37.4775 11.3628C37.4775 11.3633 37.4775 11.3638 37.4775 11.3642C37.4775 11.3647 37.4775 11.3651 37.4775 11.3656C37.4775 11.3661 37.4775 11.3665 37.4775 11.367C37.4775 11.3675 37.4775 11.3679 37.4775 11.3684C37.4775 11.3689 37.4775 11.3693 37.4775 11.3698C37.4775 11.3703 37.4775 11.3707 37.4775 11.3712C37.4775 11.3717 37.4775 11.3721 37.4775 11.3726C37.4775 11.373 37.4775 11.3735 37.4775 11.374C37.4775 11.3744 37.4775 11.3749 37.4775 11.3754C37.4775 11.3758 37.4775 11.3763 37.4775 11.3768C37.4775 11.3772 37.4775 11.3777 37.4775 11.3781C37.4775 11.3786 37.4775 11.3791 37.4775 11.3795C37.4775 11.38 37.4775 11.3805 37.4775 11.3809C37.4775 11.3814 37.4775 11.3818 37.4775 11.3823C37.4775 11.3828 37.4775 11.3832 37.4775 11.3837C37.4775 11.3842 37.4775 11.3846 37.4775 11.3851C37.4775 11.3855 37.4775 11.386 37.4775 11.3865C37.4775 11.3869 37.4775 11.3874 37.4775 11.3879C37.4775 11.3883 37.4775 11.3888 37.4775 11.3892C37.4775 11.3897 37.4775 11.3902 37.4775 11.3906C37.4775 11.3911 37.4775 11.3915 37.4775 11.392C37.4775 11.3925 37.4775 11.3929 37.4775 11.3934C37.4775 11.3939 37.4775 11.3943 37.4775 11.3948C37.4775 11.3952 37.4775 11.3957 37.4775 11.3962C37.4775 11.3966 37.4775 11.3971 37.4775 11.3975C37.4775 11.398 37.4775 11.3985 37.4775 11.3989C37.4775 11.3994 37.4775 11.3998 37.4775 11.4003C37.4775 11.4008 37.4775 11.4012 37.4775 11.4017C37.4775 11.4021 37.4775 11.4026 37.4775 11.4031C37.4775 11.4035 37.4775 11.404 37.4775 11.4044C37.4775 11.4049 37.4775 11.4054 37.4775 11.4058C37.4775 11.4063 37.4775 11.4067 37.4775 11.4072C37.4775 11.4077 37.4775 11.4081 37.4775 11.4086C37.4775 11.409 37.4775 11.4095 37.4775 11.41C37.4775 11.4104 37.4775 11.4109 37.4775 11.4113C37.4775 11.4118 37.4775 11.4122 37.4775 11.4127C37.4775 11.4132 37.4775 11.4136 37.4775 11.4141C37.4775 11.4145 37.4775 11.415 37.4775 11.4155C37.4775 11.4159 37.4775 11.4164 37.4775 11.4168C37.4775 11.4173 37.4775 11.4177 37.4775 11.4182C37.4775 11.4187 37.4775 11.4191 37.4775 11.4196C37.4775 11.42 37.4775 11.4205 37.4775 11.4209C37.4775 11.4214 37.4775 11.4219 37.4775 11.4223C37.4775 11.4228 37.4775 11.4232 37.4775 11.4237C37.4775 11.4241 37.4775 11.4246 37.4775 11.4251C37.4775 11.4255 37.4775 11.426 37.4775 11.4264C37.4775 11.4269 37.4775 11.4273 37.4775 11.4278C37.4775 11.4283 37.4775 11.4287 37.4775 11.4292C37.4775 11.4296 37.4775 11.4301 37.4775 11.4305C37.4775 11.431 37.4775 11.4315 37.4775 11.4319C37.4775 11.4324 37.4775 11.4328 37.4775 11.4333C37.4775 11.4337 37.4775 11.4342 37.4775 11.4346C37.4775 11.4351 37.4775 11.4356 37.4775 11.436C37.4775 11.4365 37.4775 11.4369 37.4775 11.4374C37.4775 11.4378 37.4775 11.4383 37.4775 11.4387C37.4775 11.4392 37.4775 11.4396 37.4775 11.4401C37.4775 11.4406 37.4775 11.441 37.4775 11.4415C37.4775 11.4419 37.4775 11.4424 37.4775 11.4428C37.4775 11.4433 37.4775 11.4437 37.4775 11.4442C37.4775 11.4446 37.4775 11.4451 37.4775 11.4456C37.4775 11.446 37.4775 11.4465 37.4775 11.4469C37.4775 11.4474 37.4775 11.4478 37.4775 11.4483C37.4775 11.4487 37.4775 11.4492 37.4775 11.4496C37.4775 11.4501 37.4775 11.4505 37.4775 11.451C37.4775 11.4515 37.4775 11.4519 37.4775 11.4524C37.4775 11.4528 37.4775 11.4533 37.4775 11.4537C37.4775 11.4542 37.4775 11.4546 37.4775 11.4551C37.4775 11.4555 37.4775 11.456 37.4775 11.4564C37.4775 11.4569 37.4775 11.4573 37.4775 11.4578C37.4775 11.4582 37.4775 11.4587 37.4775 11.4592C37.4775 11.4596 37.4775 11.4601 37.4775 11.4605C37.4775 11.461 37.4775 11.4614 37.4775 11.4619C37.4775 11.4623 37.4775 11.4628 37.4775 11.4632C37.4775 11.4637 37.4775 11.4641 37.4775 11.4646C37.4775 11.465 37.4775 11.4655 37.4775 11.4659C37.4775 11.4664 37.4775 11.4668 37.4775 11.4673C37.4775 11.4677 37.4775 11.4682 37.4775 11.4686C37.4775 11.4691 37.4775 11.4695 37.4775 11.47C37.4775 11.4704 37.4775 11.4709 37.4775 11.4713C37.4775 11.4718 37.4775 11.4722 37.4775 11.4727C37.4775 11.4731 37.4775 11.4736 37.4775 11.474C37.4775 11.4745 37.4775 11.4749 37.4775 11.4754C37.4775 11.4758 37.4775 11.4763 37.4775 11.4767C37.4775 11.4772 37.4775 11.4776 37.4775 11.4781C37.4775 11.4785 37.4775 11.479 37.4775 11.4794C37.4775 11.4799 37.4775 11.4803 37.4775 11.4808C37.4775 11.4812 37.4775 11.4817 37.4775 11.4821C37.4775 11.4826 37.4775 11.483 37.4775 11.4835C37.4775 11.4839 37.4775 11.4844 37.4775 11.4848C37.4775 11.4853 37.4775 11.4857 37.4775 11.4862C37.4775 11.4866 37.4775 11.4871 37.4775 11.4875C37.4775 11.488 37.4775 11.4884 37.4775 11.4889C37.4775 11.4893 37.4775 11.4898 37.4775 11.4902C37.4775 11.4907 37.4775 11.4911 37.4775 11.4915C37.4775 11.492 37.4775 11.4924 37.4775 11.4929C37.4775 11.4933 37.4775 11.4938 37.4775 11.4942C37.4775 11.4947 37.4775 11.4951 37.4775 11.4956C37.4775 11.496 37.4775 11.4965 37.4775 11.4969C37.4775 11.4974 37.4775 11.4978 37.4775 11.4983C37.4775 11.4987 37.4775 11.4991 37.4775 11.4996C37.4775 11.5 37.4775 11.5005 37.4775 11.5009C37.4775 11.5014 37.4775 11.5018 37.4775 11.5023C37.4775 11.5027 37.4775 11.5032 37.4775 11.5036C37.4775 11.5041 37.4775 11.5045 37.4775 11.505C37.4775 11.5054 37.4775 11.5058 37.4775 11.5063C37.4775 11.5067 37.4775 11.5072 37.4775 11.5076C37.4775 11.5081 37.4775 11.5085 37.4775 11.509C37.4775 11.5094 37.4775 11.5099 37.4775 11.5103C37.4775 11.5107 37.4775 11.5112 37.4775 11.5116C37.4775 11.5121 37.4775 11.5125 37.4775 11.513C37.4775 11.5134 37.4775 11.5139 37.4775 11.5143C37.4775 11.5147 37.4775 11.5152 37.4775 11.5156C37.4775 11.5161 37.4775 11.5165 37.4775 11.517C37.4775 11.5174 37.4775 11.5179 37.4775 11.5183C37.4775 11.5187 37.4775 11.5192 37.4775 11.5196C37.4775 11.5201 37.4775 11.5205 37.4775 11.521C37.4775 11.5214 37.4775 11.5218 37.4775 11.5223C37.4775 11.5227 37.4775 11.5232 37.4775 11.5236C37.4775 11.5241 37.4775 11.5245 37.4775 11.525C37.4775 11.5254 37.4775 11.5258 37.4775 11.5263C37.4775 11.5267 37.4775 11.5272 37.4775 11.5276C37.4775 11.5281 37.4775 11.5285 37.4775 11.5289C37.4775 11.5294 37.4775 11.5298 37.4775 11.5303C37.4775 11.5307 37.4775 11.5311 37.4775 11.5316C37.4775 11.532 37.4775 11.5325 37.4775 11.5329C37.4775 11.5334 37.4775 11.5338 37.4775 11.5342C37.4775 11.5347 37.4775 11.5351 37.4775 11.5356C37.4775 11.536 37.4775 11.5365 37.4775 11.5369C37.4775 11.5373 37.4775 11.5378 37.4775 11.5382C37.4775 11.5387 37.4775 11.5391 37.4775 11.5395C37.4775 11.54 37.4775 11.5404 37.4775 11.5409C37.4775 11.5413 37.4775 11.5417 37.4775 11.5422C37.4775 11.5426 37.4775 11.5431 37.4775 11.5435C37.4775 11.5439 37.4775 11.5444 37.4775 11.5448C37.4775 11.5453 37.4775 11.5457 37.4775 11.5461C37.4775 11.5466 37.4775 11.547 37.4775 11.5475C37.4775 11.5479 37.4775 11.5483 37.4775 11.5488C37.4775 11.5492 37.4775 11.5497 37.4775 11.5501C37.4775 11.5505 37.4775 11.551 37.4775 11.5514C37.4775 11.5519 37.4775 11.5523 37.4775 11.5527C37.4775 11.5532 37.4775 11.5536 37.4775 11.5541C37.4775 11.5545 37.4775 11.5549 37.4775 11.5554C37.4775 11.5558 37.4775 11.5563 37.4775 11.5567C37.4775 11.5571 37.4775 11.5576 37.4775 11.558C37.4775 11.5584 37.4775 11.5589 37.4775 11.5593C37.4775 11.5598 37.4775 11.5602 37.4775 11.5606C37.4775 11.5611 37.4775 11.5615 37.4775 11.562C37.4775 11.5624 37.4775 11.5628 37.4775 11.5633C37.4775 11.5637 37.4775 11.5641 37.4775 11.5646C37.4775 11.565 37.4775 11.5655 37.4775 11.5659C37.4775 11.5663 37.4775 11.5668 37.4775 11.5672C37.4775 11.5676 37.4775 11.5681 37.4775 11.5685C37.4775 11.5689 37.4775 11.5694 37.4775 11.5698C37.4775 11.5703 37.4775 11.5707 37.4775 11.5711C37.4775 11.5716 37.4775 11.572 37.4775 11.5724C37.4775 11.5729 37.4775 11.5733 37.4775 11.5737C37.4775 11.5742 37.4775 11.5746 37.4775 11.5751C37.4775 11.5755 37.4775 11.5759 37.4775 11.5764C37.4775 11.5768 37.4775 11.5772 37.4775 11.5777C37.4775 11.5781 37.4775 11.5785 37.4775 11.579C37.4775 11.5794 37.4775 11.5798 37.4775 11.5803C37.4775 11.5807 37.4775 11.5812 37.4775 11.5816C37.4775 11.582 37.4775 11.5825 37.4775 11.5829C37.4775 11.5833 37.4775 11.5838 37.4775 11.5842C37.4775 11.5846 37.4775 11.5851 37.4775 11.5855C37.4775 11.5859 37.4775 11.5864 37.4775 11.5868C37.4775 11.5872 37.4775 11.5877 37.4775 11.5881C37.4775 11.5885 37.4775 11.589 37.4775 11.5894C37.4775 11.5898 37.4775 11.5903 37.4775 11.5907C37.4775 11.5911 37.4775 11.5916 37.4775 11.592C37.4775 11.5924 37.4775 11.5929 37.4775 11.5933C37.4775 11.5937 37.4775 11.5942 37.4775 11.5946C37.4775 11.595 37.4775 11.5955 37.4775 11.5959C37.4775 11.5963 37.4775 11.5968 37.4775 11.5972C37.4775 11.5976 37.4775 11.5981 37.4775 11.5985C37.4775 11.5989 37.4775 11.5994 37.4775 11.5998C37.4775 11.6002 37.4775 11.6007 37.4775 11.6011C37.4775 11.6015 37.4775 11.602 37.4775 11.6024C37.4775 11.6028 37.4775 11.6033 37.4775 11.6037C37.4775 11.6041 37.4775 11.6046 37.4775 11.605C37.4775 11.6054 37.4775 11.6059 37.4775 11.6063C37.4775 11.6067 37.4775 11.6072 37.4775 11.6076C37.4775 11.608 37.4775 11.6084 37.4775 11.6089C37.4775 11.6093 37.4775 11.6097 37.4775 11.6102C37.4775 11.6106 37.4775 11.611 37.4775 11.6115C37.4775 11.6119 37.4775 11.6123 37.4775 11.6128C37.4775 11.6132 37.4775 11.6136 37.4775 11.614C37.4775 11.6145 37.4775 11.6149 37.4775 11.6153C37.4775 11.6158 37.4775 11.6162 37.4775 11.6166C37.4775 11.6171 37.4775 11.6175 37.4775 11.6179C37.4775 11.6183 37.4775 11.6188 37.4775 11.6192C37.4775 11.6196 37.4775 11.6201 37.4775 11.6205C37.4775 11.6209 37.4775 11.6214 37.4775 11.6218C37.4775 11.6222 37.4775 11.6226 37.4775 11.6231C37.4775 11.6235 37.4775 11.6239 37.4775 11.6244C37.4775 11.6248 37.4775 11.6252 37.4775 11.6256C37.4775 11.6261 37.4775 11.6265 37.4775 11.6269C37.4775 11.6274 37.4775 11.6278 37.4775 11.6282C37.4775 11.6286 37.4775 11.6291 37.4775 11.6295C37.4775 11.6299 37.4775 11.6304 37.4775 11.6308C37.4775 11.6312 37.4775 11.6316 37.4775 11.6321C37.4775 11.6325 37.4775 11.6329 37.4775 11.6333C37.4775 11.6338 37.4775 11.6342 37.4775 11.6346C37.4775 11.6351 37.4775 11.6355 37.4775 11.6359C37.4775 11.6363 37.4775 11.6368 37.4775 11.6372C37.4775 11.6376 37.4775 11.638 37.4775 11.6385C37.4775 11.6389 37.4775 11.6393 37.4775 11.6398C37.4775 11.6402 37.4775 11.6406 37.4775 11.641C37.4775 11.6415 37.4775 11.6419 37.4775 11.6423C37.4775 11.6427 37.4775 11.6432 37.4775 11.6436C37.4775 11.644 37.4775 11.6444 37.4775 11.6449C37.4775 11.6453 37.4775 11.6457 37.4775 11.6461C37.4775 11.6466 37.4775 11.647 37.4775 11.6474C37.4775 11.6479 37.4775 11.6483 37.4775 11.6487C37.4775 11.6491 37.4775 11.6496 37.4775 11.65C37.4775 11.6504 37.4775 11.6508 37.4775 11.6513C37.4775 11.6517 37.4775 11.6521 37.4775 11.6525C37.4775 11.653 37.4775 11.6534 37.4775 11.6538C37.4775 11.6542 37.4775 11.6547 37.4775 11.6551C37.4775 11.6555 37.4775 11.6559 37.4775 11.6563C37.4775 11.6568 37.4775 11.6572 37.4775 11.6576C37.4775 11.658 37.4775 11.6585 37.4775 11.6589C37.4775 11.6593 37.4775 11.6597 37.4775 11.6602C37.4775 11.6606 37.4775 11.661 37.4775 11.6614C37.4775 11.6619 37.4775 11.6623 37.4775 11.6627C37.4775 11.6631 37.4775 11.6636 37.4775 11.664C37.4775 11.6644 37.4775 11.6648 37.4775 11.6652C37.4775 11.6657 37.4775 11.6661 37.4775 11.6665C37.4775 11.6669 37.4775 11.6674 37.4775 11.6678C37.4775 11.6682 37.4775 11.6686 37.4775 11.669C37.4775 11.6695 37.4775 11.6699 37.4775 11.6703C37.4775 11.6707 37.4775 11.6712 37.4775 11.6716C37.4775 11.672 37.4775 11.6724 37.4775 11.6728C37.4775 11.6733 37.4775 11.6737 37.4775 11.6741C37.4775 11.6745 37.4775 11.675 37.4775 11.6754C37.4775 11.6758 37.4775 11.6762 37.4775 11.6766C37.4775 11.6771 37.4775 11.6775 37.4775 11.6779C37.4775 11.6783 37.4775 11.6787 37.4775 11.6792C37.4775 11.6796 37.4775 11.68 37.4775 11.6804C37.4775 11.6809 37.4775 11.6813 37.4775 11.6817C37.4775 11.6821 37.4775 11.6825 37.4775 11.683C37.4775 11.6834 37.4775 11.6838 37.4775 11.6842C37.4775 11.6846 37.4775 11.6851 37.4775 11.6855C37.4775 11.6859 37.4775 11.6863 37.4775 11.6867C37.4775 11.6872 37.4775 11.6876 37.4775 11.688C37.4775 11.6884 37.4775 11.6888 37.4775 11.6893C37.4775 11.6897 37.4775 11.6901 37.4775 11.6905C37.4775 11.6909 37.4775 11.6913 37.4775 11.6918C37.4775 11.6922 37.4775 11.6926 37.4775 11.693C37.4775 11.6934 37.4775 11.6939 37.4775 11.6943C37.4775 11.6947 37.4775 11.6951 37.4775 11.6955C37.4775 11.696 37.4775 11.6964 37.4775 11.6968C37.4775 11.6972 37.4775 11.6976 37.4775 11.698C37.4775 11.6985 37.4775 11.6989 37.4775 11.6993C37.4775 11.6997 37.4775 11.7001 37.4775 11.7006C37.4775 11.701 37.4775 11.7014 37.4775 11.7018C37.4775 11.7022 37.4775 11.7026 37.4775 11.7031C37.4775 11.7035 37.4775 11.7039 37.4775 11.7043C37.4775 11.7047 37.4775 11.7051 37.4775 11.7056C37.4775 11.706 37.4775 11.7064 37.4775 11.7068C37.4775 11.7072 37.4775 11.7076 37.4775 11.7081C37.4775 11.7085 37.4775 11.7089 37.4775 11.7093C37.4775 11.7097 37.4775 11.7101 37.4775 11.7106C37.4775 11.711 37.4775 11.7114 37.4775 11.7118C37.4775 11.7122 37.4775 11.7126 37.4775 11.7131C37.4775 11.7135 37.4775 11.7139 37.4775 11.7143C37.4775 11.7147 37.4775 11.7151 37.4775 11.7156C37.4775 11.716 37.4775 11.7164 37.4775 11.7168C37.4775 11.7172 37.4775 11.7176 37.4775 11.718C37.4775 11.7185 37.4775 11.7189 37.4775 11.7193C37.4775 11.7197 37.4775 11.7201 37.4775 11.7205C37.4775 11.7209 37.4775 11.7214 37.4775 11.7218C37.4775 11.7222 37.4775 11.7226 37.4775 11.723C37.4775 11.7234 37.4775 11.7238 37.4775 11.7243C37.4775 11.7247 37.4775 11.7251 37.4775 11.7255C37.4775 11.7259 37.4775 11.7263 37.4775 11.7267C37.4775 11.7272 37.4775 11.7276 37.4775 11.728C37.4775 11.7284 37.4775 11.7288 37.4775 11.7292C37.4775 11.7296 37.4775 11.7301 37.4775 11.7305H39.4775ZM39.4775 11.0225C39.4775 7.49514 40.3091 5.26732 41.7041 4.03179L40.378 2.53461C38.355 4.32643 37.4775 7.25812 37.4775 11.0225H39.4775ZM41.7045 4.03139C43.163 2.73803 45.5951 1.98828 49.2197 1.98828V-0.0117188C45.3899 -0.0117188 42.3696 0.768479 40.3775 2.53502L41.7045 4.03139ZM49.2197 1.98828C51.052 1.98828 52.6579 2.31609 54.0564 2.94911L54.8811 1.12706C53.1872 0.360342 51.2937 -0.0117188 49.2197 -0.0117188V1.98828ZM54.0644 2.95269C55.4438 3.56254 56.5123 4.45767 57.2973 5.64222L58.9645 4.53746C57.959 3.0202 56.5861 1.88082 54.8731 1.12348L54.0644 2.95269ZM57.3019 5.64915C58.0796 6.80175 58.498 8.26433 58.498 10.0947H60.498C60.498 7.95377 60.0051 6.07976 58.9598 4.53054L57.3019 5.64915ZM58.498 10.0947V38H60.498V10.0947H58.498ZM59.498 37H50.8066V39H59.498V37ZM51.8066 38V33.6543H49.8066V38H51.8066ZM49.8428 33.3877C49.4604 34.7705 48.8519 35.7475 48.0668 36.4017L49.3472 37.9381C50.5153 36.9648 51.3066 35.598 51.7705 33.9209L49.8428 33.3877ZM48.0668 36.4017C47.2672 37.0681 46.378 37.3906 45.3623 37.3906V39.3906C46.8531 39.3906 48.1938 38.8994 49.3472 37.9381L48.0668 36.4017ZM48.8047 32.6035C49.3023 32.6035 49.7961 32.4982 50.2329 32.2289C50.6758 31.9558 50.9879 31.5583 51.1874 31.0971L49.3517 30.3033C49.2907 30.4443 49.2285 30.4985 49.1831 30.5265C49.1317 30.5582 49.0232 30.6035 48.8047 30.6035V32.6035ZM51.1874 31.0971C51.5055 30.3614 51.6602 29.5742 51.6602 28.7471H49.6602C49.6602 29.3197 49.5544 29.8346 49.3517 30.3033L51.1874 31.0971ZM51.6602 28.7471V18.542H49.6602V28.7471H51.6602ZM50.2845 17.6153C48.9785 18.1447 47.9009 18.8403 47.106 19.7321L48.5991 21.0628C49.1389 20.4572 49.9329 19.9159 51.0359 19.4687L50.2845 17.6153ZM47.1133 19.724C46.2166 20.7082 45.8516 22.0729 45.8516 23.6445H47.8516C47.8516 22.3516 48.1538 21.5516 48.5917 21.071L47.1133 19.724ZM45.8516 23.6445V28.3564H47.8516V23.6445H45.8516ZM45.8516 28.3564C45.8516 29.5064 46.0187 30.5354 46.4829 31.3072C46.996 32.1602 47.816 32.6035 48.8047 32.6035V30.6035C48.4912 30.6035 48.3347 30.5056 48.1968 30.2763C48.01 29.9658 47.8516 29.3712 47.8516 28.3564H45.8516ZM61.3047 38L60.3583 37.6771L59.9069 39H61.3047V38ZM68.0186 18.3223L68.965 18.6452L69.0781 18.3135L68.9595 17.9838L68.0186 18.3223ZM61.915 1.35449V0.354492H60.4926L60.9741 1.69297L61.915 1.35449ZM70.8262 1.35449L71.7687 1.02045L71.5327 0.354492H70.8262V1.35449ZM73.9756 10.2412L73.033 10.5752L73.983 13.2557L74.9198 10.5706L73.9756 10.2412ZM77.0762 1.35449V0.354492H76.366L76.132 1.02507L77.0762 1.35449ZM83.5703 1.35449L84.5148 1.68291L84.9767 0.354492H83.5703V1.35449ZM77.2715 19.4697L76.327 19.1413L76.2114 19.4735L76.3293 19.8049L77.2715 19.4697ZM83.8633 38V39H85.2804L84.8054 37.6648L83.8633 38ZM75.0986 38L74.1578 38.3389L74.3959 39H75.0986V38ZM71.3877 27.6973L72.3285 27.3584L71.3556 24.6572L70.4399 27.3783L71.3877 27.6973ZM67.9209 38V39H68.6395L68.8687 38.3189L67.9209 38ZM62.2511 38.3229L68.965 18.6452L67.0721 17.9994L60.3583 37.6771L62.2511 38.3229ZM68.9595 17.9838L62.856 1.01601L60.9741 1.69297L67.0776 18.6607L68.9595 17.9838ZM61.915 2.35449H70.8262V0.354492H61.915V2.35449ZM69.8836 1.68853L73.033 10.5752L74.9181 9.90717L71.7687 1.02045L69.8836 1.68853ZM74.9198 10.5706L78.0204 1.68392L76.132 1.02507L73.0314 9.91179L74.9198 10.5706ZM77.0762 2.35449H83.5703V0.354492H77.0762V2.35449ZM82.6258 1.02607L76.327 19.1413L78.216 19.7981L84.5148 1.68291L82.6258 1.02607ZM76.3293 19.8049L82.9211 38.3352L84.8054 37.6648L78.2136 19.1346L76.3293 19.8049ZM83.8633 37H75.0986V39H83.8633V37ZM76.0395 37.6611L72.3285 27.3584L70.4469 28.0361L74.1578 38.3389L76.0395 37.6611ZM70.4399 27.3783L66.9731 37.6811L68.8687 38.3189L72.3355 28.0162L70.4399 27.3783ZM67.9209 37H61.3047V39H67.9209V37ZM88.9586 37.625L88.2426 38.3231L88.2514 38.3322L88.2605 38.341L88.9586 37.625ZM88.9586 32.85L88.2515 32.1429L88.2515 32.1429L88.9586 32.85ZM93.7336 32.85L93.0175 33.5482L93.0265 33.5571L93.7336 32.85ZM93.7336 37.625L94.4408 38.3322L94.4496 38.3231L93.7336 37.625ZM91.3336 37.6C90.6823 37.6 90.1399 37.3801 89.6567 36.909L88.2605 38.341C89.1106 39.1699 90.1515 39.6 91.3336 39.6V37.6ZM89.6746 36.9269C89.2035 36.4437 88.9836 35.9013 88.9836 35.25H86.9836C86.9836 36.4321 87.4137 37.473 88.2426 38.3231L89.6746 36.9269ZM88.9836 35.25C88.9836 34.5553 89.2101 34.0127 89.6657 33.5571L88.2515 32.1429C87.4071 32.9873 86.9836 34.0447 86.9836 35.25H88.9836ZM89.6657 33.5571C90.1508 33.072 90.6905 32.85 91.3336 32.85V30.85C90.1434 30.85 89.0997 31.2947 88.2515 32.1429L89.6657 33.5571ZM91.3336 32.85C92.0202 32.85 92.5601 33.0788 93.0176 33.5481L94.4496 32.1519C93.6071 31.2878 92.547 30.85 91.3336 30.85V32.85ZM93.0265 33.5571C93.4821 34.0127 93.7086 34.5553 93.7086 35.25H95.7086C95.7086 34.0447 95.2851 32.9873 94.4407 32.1429L93.0265 33.5571ZM93.7086 35.25C93.7086 35.9013 93.4887 36.4437 93.0176 36.9269L94.4496 38.3231C95.2785 37.473 95.7086 36.4321 95.7086 35.25H93.7086ZM93.0265 36.9179C92.5709 37.3735 92.0283 37.6 91.3336 37.6V39.6C92.5389 39.6 93.5963 39.1765 94.4407 38.3321L93.0265 36.9179Z" fill="#262523"/>
<defs>
<filter id="filter0_i_21_110" x="0.757812" y="0.988281" width="93.9508" height="41.6117" filterUnits="userSpaceOnUse" color-interpolation-filters="sRGB">
<feFlood flood-opacity="0" result="BackgroundImageFix"/>
<feBlend mode="normal" in="SourceGraphic" in2="BackgroundImageFix" result="shape"/>
<feColorMatrix in="SourceAlpha" type="matrix" values="0 0 0 0 0 0 0 0 0 0 0 0 0 0 0 0 0 0 127 0" result="hardAlpha"/>
<feOffset dy="4"/>
<feGaussianBlur stdDeviation="2"/>
<feComposite in2="hardAlpha" operator="arithmetic" k2="-1" k3="1"/>
<feColorMatrix type="matrix" values="0 0 0 0 0 0 0 0 0 0 0 0 0 0 0 0 0 0 0.25 0"/>
<feBlend mode="normal" in2="shape" result="effect1_innerShadow_21_110"/>
</filter>
</defs>
</svg>
