<svg width="78" height="80" viewBox="0 0 78 80" fill="none" xmlns="http://www.w3.org/2000/svg">
<g id="XMLID_801_">
<path id="XMLID_802_" d="M18.7129 25.7366H3.21251C2.52458 25.7366 1.96716 26.3144 1.96716 27.0269V78.6212C1.96716 79.334 2.52458 79.9115 3.21251 79.9115H18.7129C19.4008 79.9115 19.9583 79.334 19.9583 78.6212V27.0269C19.9583 26.3144 19.4008 25.7366 18.7129 25.7366Z" fill="#262523"/>
<path id="XMLID_803_" d="M10.9683 0.0878906C5.32836 0.0878906 0.73999 4.83679 0.73999 10.674C0.73999 16.5137 5.32836 21.2644 10.9683 21.2644C16.6038 21.2644 21.1884 16.5134 21.1884 10.674C21.1887 4.83679 16.6038 0.0878906 10.9683 0.0878906Z" fill="#262523"/>
<path id="XMLID_804_" d="M58.1392 24.4543C51.9137 24.4543 47.3117 27.2272 44.5203 30.378V27.027C44.5203 26.3145 43.9629 25.7367 43.275 25.7367H28.4307C27.7427 25.7367 27.1853 26.3145 27.1853 27.027V78.6213C27.1853 79.3341 27.7427 79.9116 28.4307 79.9116H43.8972C44.5851 79.9116 45.1425 79.3341 45.1425 78.6213V53.0941C45.1425 44.492 47.3976 41.1408 53.185 41.1408C59.488 41.1408 59.9888 46.5132 59.9888 53.5367V78.6216C59.9888 79.3343 60.5463 79.9119 61.2342 79.9119H76.7064C77.3944 79.9119 77.9518 79.3343 77.9518 78.6216V50.3212C77.9518 37.5302 75.5978 24.4543 58.1392 24.4543Z" fill="#262523"/>
</g>
</svg>
